<?xml version="1.0" encoding="UTF-8" standalone="no"?>
<!-- Created with Inkscape (http://www.inkscape.org/) -->

<svg
   xmlns:dc="http://purl.org/dc/elements/1.1/"
   xmlns:cc="http://creativecommons.org/ns#"
   xmlns:rdf="http://www.w3.org/1999/02/22-rdf-syntax-ns#"
   xmlns:svg="http://www.w3.org/2000/svg"
   xmlns="http://www.w3.org/2000/svg"
   xmlns:sodipodi="http://sodipodi.sourceforge.net/DTD/sodipodi-0.dtd"
   xmlns:inkscape="http://www.inkscape.org/namespaces/inkscape"
   width="108"
   height="108"
   id="svg3247"
   version="1.1"
   inkscape:version="0.48.4 r9939"
   sodipodi:docname="New document 3">
  <defs
     id="defs3249" />
  <sodipodi:namedview
     id="base"
     pagecolor="#ffffff"
     bordercolor="#666666"
     borderopacity="1.0"
     inkscape:pageopacity="0.0"
     inkscape:pageshadow="2"
     inkscape:zoom="3.959798"
     inkscape:cx="52.283995"
     inkscape:cy="51.08822"
     inkscape:document-units="px"
     inkscape:current-layer="layer1"
     showgrid="true"
     fit-margin-top="4"
     fit-margin-left="4"
     fit-margin-right="4"
     fit-margin-bottom="4"
     inkscape:window-width="1598"
     inkscape:window-height="857"
     inkscape:window-x="0"
     inkscape:window-y="0"
     inkscape:window-maximized="1">
    <inkscape:grid
       type="xygrid"
       id="grid3268"
       empspacing="5"
       visible="true"
       enabled="true"
       snapvisiblegridlinesonly="true" />
  </sodipodi:namedview>
  <metadata
     id="metadata3252">
    <rdf:RDF>
      <cc:Work
         rdf:about="">
        <dc:format>image/svg+xml</dc:format>
        <dc:type
           rdf:resource="http://purl.org/dc/dcmitype/StillImage" />
        <dc:title></dc:title>
      </cc:Work>
    </rdf:RDF>
  </metadata>
  <g
     inkscape:label="Layer 1"
     inkscape:groupmode="layer"
     id="layer1"
     transform="translate(-209.04839,-108.38481)">
    <g
       id="g5768"
       transform="matrix(0.53583515,0,0,0.44775661,655.14319,-892.04887)">
      <path
         inkscape:connector-curvature="0"
         sodipodi:nodetypes="cccccssssssscccssssssssccccccccccsssccsssssssccsssccccscccccssssssscccsssssssccsccsccccsssscccssssssscccsssscccccc"
         id="path5016-6-1"
         d="m -743.24812,2243.4447 c -4.18279,0.1027 -5.06833,2.2765 -4.87127,4.4463 l 0.48754,9.9557 c 0.20455,3.6593 -2.92372,7.1786 -6.58177,7.4044 l -13.95595,0.8228 c -1.53406,0.091 -0.34134,-0.084 -1.82827,0.3047 -1.48693,0.3882 -0.35408,-0.03 -1.73686,0.6399 -1.38277,0.6705 -0.35889,0.018 -1.5845,0.9446 -1.22561,0.9272 -0.34974,0.1317 -1.3712,1.2798 -1.02146,1.1482 -0.31881,0.168 -1.09697,1.493 -0.77815,1.3253 -0.25678,0.2246 -0.76178,1.676 -0.505,1.4514 -0.2141,0.2758 -0.42659,1.7978 -0.21249,1.522 -0.17959,0.3245 -0.0914,1.8588 l 3.07759,52.5323 0,0.03 c 0.0807,1.4254 -0.0778,0.3332 0.30471,1.7977 0.38886,1.4888 -0.032,0.3832 0.6399,1.7674 0.67184,1.3843 0.046,0.3275 0.97508,1.554 0.929,1.2266 0.0988,0.3495 1.24932,1.3712 1.15046,1.0218 0.16539,0.3193 1.49308,1.097 1.3277,0.7777 0.22201,0.2582 1.67592,0.7618 1.45391,0.5036 0.30404,0.2163 1.82827,0.4266 1.52423,0.2103 0.2923,0.1825 1.82827,0.092 0.0101,0 0.0203,0 0.0304,0 l 14.04722,-0.8227 c 3.6593,-0.2045 7.17861,2.9238 7.4045,6.5818 l 0.22249,1.7173 c 0.0144,0.1417 0.0245,0.2841 0.0304,0.4265 l 0,0.2743 c -0.008,0.1119 -0.0177,0.2236 -0.0304,0.3352 l -0.18282,3.8394 c -0.16499,3.605 -3.52186,6.761 -7.13026,6.7036 l -39.06406,-0.7008 c -1.53655,-0.028 -0.34613,-0.1497 -1.85874,0.1219 -1.51262,0.2715 -0.33663,-0.043 -1.76733,0.5181 -1.4307,0.561 -0.35152,0.024 -1.64545,0.8531 -1.29393,0.8291 -0.35508,0.062 -1.46261,1.1275 l -26.72323,25.8091 c -1.10817,1.0678 -0.30991,0.1381 -1.18838,1.4017 -0.87847,1.2636 -0.29913,0.2041 -0.91413,1.6149 -0.615,1.4107 -0.25107,0.2636 -0.57895,1.7673 -0.32788,1.5036 -0.18515,0.32 -0.21331,1.8588 -0.0282,1.5387 -0.12029,0.3136 0.15236,1.8283 0.27265,1.5145 -0.0755,0.3655 0.48754,1.7977 0.56297,1.4323 0.0216,0.3505 0.85319,1.6454 0.83165,1.295 0.0896,0.355 1.15791,1.4627 l 25.74815,26.8146 c 1.06977,1.1073 0.13631,0.3113 1.40167,1.1885 1.26537,0.8771 0.20273,0.3009 1.61498,0.9141 1.41225,0.6131 0.26253,0.2532 1.76733,0.5789 1.50479,0.3257 0.31931,0.1572 1.85874,0.1828 l 36.74825,0.6704 c 3.75105,0.07 7.07311,3.627 6.88648,7.374 l -1.18837,25.6873 c 0.90964,4.0391 5.86003,-1.7394 12.22321,0.4072 3.70575,1.2501 14.16217,5.014 18.84753,5.1164 1.32505,-0.055 2.78914,0.07 2.91828,-1.55 l 1.73686,-29.5571 c 0.2102,-3.5738 3.55079,-6.6717 7.13026,-6.6123 l 6.78112,0.14 c 1.53536,0.026 0.31723,0.1515 1.82827,-0.1219 1.51105,-0.2733 0.3689,0.044 1.79781,-0.518 1.42889,-0.5624 0.35339,-0.024 1.64544,-0.8532 1.29204,-0.8298 0.35688,-0.061 1.46262,-1.1275 1.10573,-1.0655 0.31128,-0.1716 1.18837,-1.4321 0.8771,-1.2604 0.29926,-0.2078 0.91414,-1.615 0.61487,-1.4071 0.21936,-0.2369 0.54848,-1.7367 0.32379,-1.4758 0.18836,-0.4035 0.2133,-1.8283 l 0,-0.03 0.97508,-52.5932 c 0.029,-1.539 0.15007,-0.3438 -0.12189,-1.8588 -0.27196,-1.515 0.0444,-0.3651 -0.51801,-1.7978 -0.56241,-1.4328 -0.0219,-0.3501 -0.85319,-1.6454 -0.83123,-1.2955 -0.0594,-0.3544 -1.12744,-1.4627 -1.06808,-1.1083 -0.1683,-0.3098 -1.43214,-1.1883 -1.26385,-0.8786 -0.20397,-0.2992 -1.61498,-0.9142 -1.411,-0.615 -0.26343,-0.2208 -1.76733,-0.5484 -1.50389,-0.3278 -0.28932,-0.1855 -1.82826,-0.2133 l -4.8342,-0.2867 c -1.90251,-0.033 -3.7776,-0.8781 -5.06208,-2.282 -1.28448,-1.4039 -1.96028,-3.3464 -1.8244,-5.2444 l 0.0304,-0.457 c 0.005,-0.3987 0.0103,-0.2241 0,-0.2743 -0.004,-0.016 0.0101,0.041 0,-0.092 l -0.89286,-7.2021 c -0.32188,-3.7271 2.84736,-7.3953 6.58178,-7.6178 l 30.52139,-1.9987 c 0.0101,0 0.0203,0 0.0304,0 1.53672,-0.088 0.33815,0.081 1.82828,-0.3047 1.49012,-0.3856 0.35063,0.029 1.73685,-0.6399 1.38623,-0.669 0.35551,-0.018 1.58451,-0.9446 1.21408,-0.9153 0.37398,-0.1612 1.34073,-1.2493 l 24.65119,-27.8203 c 0.0101,0 0.0203,0 0.0304,0 1.01992,-1.1496 0.29018,-0.1666 1.06649,-1.4929 0.77631,-1.3265 0.28932,-0.2237 0.79225,-1.676 0.50293,-1.4523 0.21635,-0.3058 0.4266,-1.8283 0.21024,-1.5224 0.15143,-0.294 0.0609,-1.8283 -0.0905,-1.5342 0.1135,-0.341 -0.27424,-1.8282 -0.38775,-1.4872 0.0302,-0.3538 -0.6399,-1.7368 -0.67015,-1.3832 -0.0483,-0.3586 -0.97507,-1.5846 -0.92685,-1.2259 -0.10133,-0.3493 -1.24932,-1.3712 l -27.75926,-24.7426 0,0.03 c -1.15078,-1.0191 -0.16572,-0.3216 -1.49308,-1.0969 -1.32737,-0.7754 -0.22289,-0.2601 -1.67592,-0.7618 -1.45302,-0.5017 -0.27486,-0.2482 -1.7978,-0.4571 -1.52293,-0.2087 -0.32431,-0.1529 -1.85874,-0.06 -0.0102,1e-4 -0.0203,1e-4 -0.0304,0 l -34.17442,1.9131 c -3.60268,0.2083 -7.08858,-2.8041 -7.4045,-6.399 l -0.563,-6.6263 c -0.16405,-1.6812 -2.44303,-6.3 -8.52691,-6.1951 -5.43269,-0.2362 -10.87595,-0.058 -16.31029,0.071 z"
         style="fill:#000000;fill-opacity:1;stroke:none" />
      <path
         inkscape:connector-curvature="0"
         style="fill:#444444;fill-opacity:1;stroke:#000000;stroke-width:4.92983055;stroke-miterlimit:4;stroke-opacity:1;stroke-dasharray:none"
         d="m -756.8317,2271.768 a 12.354752,10.580055 0 0 0 -11.6061,11.1801 l 2.31464,33.7239 a 12.354752,10.580055 0 0 0 13.0556,9.9389 l 68.91628,-3.4688 a 12.354752,10.580055 0 0 0 8.51223,-3.5277 l 18.48429,-17.8504 a 12.354752,10.580055 0 0 0 -1.02555,-14.9421 l -20.79895,-15.8732 a 12.354752,10.580055 0 0 0 -8.93618,-2.6495 l -68.91626,3.4688 z"
         id="path15895-7-0-0-3-1" />
      <path
         inkscape:connector-curvature="0"
         style="fill:#444444;fill-opacity:1;stroke:#000000;stroke-width:4.69364357;stroke-miterlimit:4;stroke-opacity:1;stroke-dasharray:none"
         d="m -708.73558,2418.6099 a 12.169867,9.7362632 0 0 0 12.38895,-9.5536 l 0.71452,-31.0826 a 12.169867,9.7362632 0 0 0 -11.94149,-9.9116 l -67.99063,-1.0004 a 12.169867,9.7362632 0 0 0 -8.67245,2.7201 l -19.73509,15.2562 a 12.169867,9.7362632 0 0 0 -0.31656,13.7718 l 19.02054,15.8264 a 12.169867,9.7362632 0 0 0 8.54159,2.9733 l 67.99062,1.0004 z"
         id="path15895-8-1-10-7-7-3" />
    </g>
  </g>
</svg>
